<svg xmlns="http://www.w3.org/2000/svg" width="64" height="64" viewBox="0 0 80 80"><rect width="80" height="80" rx="18" fill="#110F12"/><g fill="none" stroke="#96B9CA" stroke-width="3" stroke-linecap="round" stroke-linejoin="round" transform="translate(-1.4 0)" opacity=".5"><path d="M10 12 27 21Q40 16 53 21L70 12V40Q70 62 40 74 10 62 10 40Z"/><circle cx="28" cy="39" r="12"/><circle cx="52" cy="39" r="12"/><path d="m36 54 4 5 4-5"/><g fill="#96B9CA" stroke="none"><circle cx="28" cy="39" r="3.2"/><circle cx="52" cy="39" r="3.2"/></g></g><g fill="none" stroke="#C65A70" stroke-width="3" stroke-linecap="round" stroke-linejoin="round" transform="translate(1.4 0)" opacity=".5"><path d="M10 12 27 21Q40 16 53 21L70 12V40Q70 62 40 74 10 62 10 40Z"/><circle cx="28" cy="39" r="12"/><circle cx="52" cy="39" r="12"/><path d="m36 54 4 5 4-5"/><g fill="#C65A70" stroke="none"><circle cx="28" cy="39" r="3.2"/><circle cx="52" cy="39" r="3.2"/></g></g><g fill="none" stroke="#E8DFDA" stroke-width="3" stroke-linecap="round" stroke-linejoin="round"><path d="M10 12 27 21Q40 16 53 21L70 12V40Q70 62 40 74 10 62 10 40Z"/><circle cx="28" cy="39" r="12"/><circle cx="52" cy="39" r="12"/><path d="m36 54 4 5 4-5"/><g fill="#E8DFDA" stroke="none"><circle cx="28" cy="39" r="3.2"/><circle cx="52" cy="39" r="3.2"/></g></g></svg>